REM DIRINDEX 1\2,1\3
REM DIRNAME folder01,folder02,folder03
TITLE ""
FILE "sample sentencesTrack10.mp3" MP3
  TRACK 01 AUDIO
    TITLE "3:cjc143_2658"
    INDEX 01 00:00:00
  TRACK 02 AUDIO
    TITLE "0:"
    INDEX 01 00:00:62
  TRACK 03 AUDIO
    TITLE "3:cjc143_2659"
    INDEX 01 00:01:26
  TRACK 04 AUDIO
    TITLE "0:"
    INDEX 01 00:05:54
  TRACK 05 AUDIO
    TITLE "3:cjc143_2660"
    INDEX 01 00:06:61
  TRACK 06 AUDIO
    TITLE "0:"
    INDEX 01 00:09:24
  TRACK 07 AUDIO
    TITLE "3:cjc143_2661"
    INDEX 01 00:10:31
  TRACK 08 AUDIO
    TITLE "0:"
    INDEX 01 00:12:61
  TRACK 09 AUDIO
    TITLE "3:cjc143_2662"
    INDEX 01 00:13:67
  TRACK 10 AUDIO
    TITLE "0:"
    INDEX 01 00:16:36
  TRACK 11 AUDIO
    TITLE "3:cjc143_2663"
    INDEX 01 00:17:43
  TRACK 12 AUDIO
    TITLE "0:"
    INDEX 01 00:21:29
  TRACK 13 AUDIO
    TITLE "3:cjc143_2664"
    INDEX 01 00:22:38
  TRACK 14 AUDIO
    TITLE "0:"
    INDEX 01 00:24:25
  TRACK 15 AUDIO
    TITLE "3:cjc143_2665"
    INDEX 01 00:25:31
  TRACK 16 AUDIO
    TITLE "0:"
    INDEX 01 00:27:32
  TRACK 17 AUDIO
    TITLE "3:cjc143_2666"
    INDEX 01 00:28:39
  TRACK 18 AUDIO
    TITLE "0:"
    INDEX 01 00:31:31
  TRACK 19 AUDIO
    TITLE "3:cjc143_2667"
    INDEX 01 00:32:39
  TRACK 20 AUDIO
    TITLE "0:"
    INDEX 01 00:36:07
  TRACK 21 AUDIO
    TITLE "3:cjc143_2668"
    INDEX 01 00:37:16
  TRACK 22 AUDIO
    TITLE "0:"
    INDEX 01 00:39:00
  TRACK 23 AUDIO
    TITLE "3:cjc143_2669"
    INDEX 01 00:40:11
  TRACK 24 AUDIO
    TITLE "0:"
    INDEX 01 00:42:43
  TRACK 25 AUDIO
    TITLE "3:cjc143_2670"
    INDEX 01 00:43:52
  TRACK 26 AUDIO
    TITLE "0:"
    INDEX 01 00:46:29
  TRACK 27 AUDIO
    TITLE "3:cjc143_2671"
    INDEX 01 00:47:34
  TRACK 28 AUDIO
    TITLE "0:"
    INDEX 01 00:49:74
  TRACK 29 AUDIO
    TITLE "3:cjc143_2672"
    INDEX 01 00:51:07
  TRACK 30 AUDIO
    TITLE "0:"
    INDEX 01 00:53:04
  TRACK 31 AUDIO
    TITLE "3:cjc143_2673"
    INDEX 01 00:54:09
  TRACK 32 AUDIO
    TITLE "0:"
    INDEX 01 00:56:25
  TRACK 33 AUDIO
    TITLE "3:cjc143_2674"
    INDEX 01 00:57:33
  TRACK 34 AUDIO
    TITLE "0:"
    INDEX 01 00:59:47
  TRACK 35 AUDIO
    TITLE "3:cjc143_2675"
    INDEX 01 01:00:55
  TRACK 36 AUDIO
    TITLE "0:"
    INDEX 01 01:02:65
  TRACK 37 AUDIO
    TITLE "3:cjc143_2676"
    INDEX 01 01:04:01
  TRACK 38 AUDIO
    TITLE "0:"
    INDEX 01 01:06:65
  TRACK 39 AUDIO
    TITLE "3:cjc143_2677"
    INDEX 01 01:07:74
  TRACK 40 AUDIO
    TITLE "0:"
    INDEX 01 01:10:47
  TRACK 41 AUDIO
    TITLE "3:cjc143_2678"
    INDEX 01 01:11:56
  TRACK 42 AUDIO
    TITLE "0:"
    INDEX 01 01:13:71
  TRACK 43 AUDIO
    TITLE "3:cjc143_2679"
    INDEX 01 01:15:07
  TRACK 44 AUDIO
    TITLE "0:"
    INDEX 01 01:17:47
  TRACK 45 AUDIO
    TITLE "3:cjc143_2680"
    INDEX 01 01:18:58
  TRACK 46 AUDIO
    TITLE "0:"
    INDEX 01 01:22:11
  TRACK 47 AUDIO
    TITLE "3:cjc143_2681"
    INDEX 01 01:23:22
  TRACK 48 AUDIO
    TITLE "0:"
    INDEX 01 01:25:57
  TRACK 49 AUDIO
    TITLE "3:cjc143_2682"
    INDEX 01 01:26:62
  TRACK 50 AUDIO
    TITLE "0:"
    INDEX 01 01:29:50
  TRACK 51 AUDIO
    TITLE "3:cjc143_2683"
    INDEX 01 01:30:54
  TRACK 52 AUDIO
    TITLE "0:"
    INDEX 01 01:33:66
  TRACK 53 AUDIO
    TITLE "3:cjc143_2684"
    INDEX 01 01:35:04
  TRACK 54 AUDIO
    TITLE "0:"
    INDEX 01 01:38:02
  TRACK 55 AUDIO
    TITLE "3:cjc143_2685"
    INDEX 01 01:39:06
  TRACK 56 AUDIO
    TITLE "0:"
    INDEX 01 01:41:61
  TRACK 57 AUDIO
    TITLE "3:cjc143_2686"
    INDEX 01 01:42:69
  TRACK 58 AUDIO
    TITLE "0:"
    INDEX 01 01:45:20
  TRACK 59 AUDIO
    TITLE "3:cjc143_2687"
    INDEX 01 01:46:29
  TRACK 60 AUDIO
    TITLE "0:"
    INDEX 01 01:48:63
  TRACK 61 AUDIO
    TITLE "3:cjc143_2688"
    INDEX 01 01:49:73
  TRACK 62 AUDIO
    TITLE "0:"
    INDEX 01 01:52:36
  TRACK 63 AUDIO
    TITLE "3:cjc143_2689"
    INDEX 01 01:53:51
  TRACK 64 AUDIO
    TITLE "0:"
    INDEX 01 01:56:16
  TRACK 65 AUDIO
    TITLE "3:cjc143_2690"
    INDEX 01 01:57:23
  TRACK 66 AUDIO
    TITLE "0:"
    INDEX 01 02:00:02
  TRACK 67 AUDIO
    TITLE "3:cjc143_2691"
    INDEX 01 02:01:07
  TRACK 68 AUDIO
    TITLE "0:"
    INDEX 01 02:06:10
  TRACK 69 AUDIO
    TITLE "3:cjc143_2692"
    INDEX 01 02:07:20
  TRACK 70 AUDIO
    TITLE "0:"
    INDEX 01 02:09:62
  TRACK 71 AUDIO
    TITLE "3:cjc143_2693"
    INDEX 01 02:10:67
  TRACK 72 AUDIO
    TITLE "0:"
    INDEX 01 02:12:52
  TRACK 73 AUDIO
    TITLE "3:cjc143_2694"
    INDEX 01 02:13:63
  TRACK 74 AUDIO
    TITLE "0:"
    INDEX 01 02:16:01
  TRACK 75 AUDIO
    TITLE "3:cjc143_2695"
    INDEX 01 02:17:18
  TRACK 76 AUDIO
    TITLE "0:"
    INDEX 01 02:19:68
  TRACK 77 AUDIO
    TITLE "3:cjc143_2696"
    INDEX 01 02:21:00
  TRACK 78 AUDIO
    TITLE "0:"
    INDEX 01 02:23:50
  TRACK 79 AUDIO
    TITLE "3:cjc143_2697"
    INDEX 01 02:24:61
  TRACK 80 AUDIO
    TITLE "0:"
    INDEX 01 02:26:60
  TRACK 81 AUDIO
    TITLE "3:cjc143_2698"
    INDEX 01 02:27:67
  TRACK 82 AUDIO
    TITLE "0:"
    INDEX 01 02:30:05
  TRACK 83 AUDIO
    TITLE "3:cjc143_2699"
    INDEX 01 02:31:10
  TRACK 84 AUDIO
    TITLE "0:"
    INDEX 01 02:34:38
  TRACK 85 AUDIO
    TITLE "3:cjc143_2700"
    INDEX 01 02:35:43
  TRACK 86 AUDIO
    TITLE "0:"
    INDEX 01 02:39:41
  TRACK 87 AUDIO
    TITLE "3:cjc143_2701"
    INDEX 01 02:40:47
  TRACK 88 AUDIO
    TITLE "0:"
    INDEX 01 02:42:63
  TRACK 89 AUDIO
    TITLE "3:cjc143_2702"
    INDEX 01 02:43:68
  TRACK 90 AUDIO
    TITLE "0:"
    INDEX 01 02:46:04
  TRACK 91 AUDIO
    TITLE "3:cjc143_2703"
    INDEX 01 02:47:07
  TRACK 92 AUDIO
    TITLE "0:"
    INDEX 01 02:49:49
  TRACK 93 AUDIO
    TITLE "3:cjc143_2704"
    INDEX 01 02:50:57
  TRACK 94 AUDIO
    TITLE "0:"
    INDEX 01 02:53:71
  TRACK 95 AUDIO
    TITLE "3:cjc143_2705"
    INDEX 01 02:55:05
  TRACK 96 AUDIO
    TITLE "0:"
    INDEX 01 02:57:67
  TRACK 97 AUDIO
    TITLE "3:cjc143_2706"
    INDEX 01 02:58:72
  TRACK 98 AUDIO
    TITLE "0:"
    INDEX 01 03:02:27
  TRACK 99 AUDIO
    TITLE "3:cjc143_2707"
    INDEX 01 03:03:28
  TRACK 100 AUDIO
    TITLE "0:"
    INDEX 01 03:05:05
  TRACK 101 AUDIO
    TITLE "3:cjc143_2708"
    INDEX 01 03:06:09
  TRACK 102 AUDIO
    TITLE "0:"
    INDEX 01 03:09:05
  TRACK 103 AUDIO
    TITLE "3:cjc143_2709"
    INDEX 01 03:10:12
  TRACK 104 AUDIO
    TITLE "0:"
    INDEX 01 03:11:59
  TRACK 105 AUDIO
    TITLE "3:cjc143_2710"
    INDEX 01 03:12:68
  TRACK 106 AUDIO
    TITLE "0:"
    INDEX 01 03:14:59
  TRACK 107 AUDIO
    TITLE "3:cjc143_2711"
    INDEX 01 03:15:64
  TRACK 108 AUDIO
    TITLE "0:"
    INDEX 01 03:19:05
  TRACK 109 AUDIO
    TITLE "3:cjc143_2712"
    INDEX 01 03:20:09
  TRACK 110 AUDIO
    TITLE "0:"
    INDEX 01 03:21:65
  TRACK 111 AUDIO
    TITLE "3:cjc143_2713"
    INDEX 01 03:22:74
  TRACK 112 AUDIO
    TITLE "0:"
    INDEX 01 03:24:40
  TRACK 113 AUDIO
    TITLE "3:cjc143_2714"
    INDEX 01 03:25:45
  TRACK 114 AUDIO
    TITLE "0:"
    INDEX 01 03:27:58
  TRACK 115 AUDIO
    TITLE "3:cjc143_2715"
    INDEX 01 03:28:63
  TRACK 116 AUDIO
    TITLE "0:"
    INDEX 01 03:32:02
  TRACK 117 AUDIO
    TITLE "3:cjc143_2716"
    INDEX 01 03:33:09
  TRACK 118 AUDIO
    TITLE "0:"
    INDEX 01 03:35:04
  TRACK 119 AUDIO
    TITLE "3:cjc143_2717"
    INDEX 01 03:36:12
  TRACK 120 AUDIO
    TITLE "0:"
    INDEX 01 03:38:56
  TRACK 121 AUDIO
    TITLE "3:cjc143_2718"
    INDEX 01 03:39:63
  TRACK 122 AUDIO
    TITLE "0:"
    INDEX 01 03:41:25
  TRACK 123 AUDIO
    TITLE "3:cjc143_2719"
    INDEX 01 03:42:32
  TRACK 124 AUDIO
    TITLE "0:"
    INDEX 01 03:45:09
  TRACK 125 AUDIO
    TITLE "3:cjc143_2720"
    INDEX 01 03:46:14
  TRACK 126 AUDIO
    TITLE "0:"
    INDEX 01 03:49:50
  TRACK 127 AUDIO
    TITLE "3:cjc143_2721"
    INDEX 01 03:50:61
  TRACK 128 AUDIO
    TITLE "0:"
    INDEX 01 03:53:18
  TRACK 129 AUDIO
    TITLE "3:cjc143_2722"
    INDEX 01 03:54:29
  TRACK 130 AUDIO
    TITLE "0:"
    INDEX 01 03:58:64
  TRACK 131 AUDIO
    TITLE "3:cjc143_2723"
    INDEX 01 04:00:00
  TRACK 132 AUDIO
    TITLE "0:"
    INDEX 01 04:02:62
  TRACK 133 AUDIO
    TITLE "3:cjc143_2724"
    INDEX 01 04:03:67
  TRACK 134 AUDIO
    TITLE "0:"
    INDEX 01 04:06:72
  TRACK 135 AUDIO
    TITLE "3:cjc143_2725"
    INDEX 01 04:08:02
  TRACK 136 AUDIO
    TITLE "0:"
    INDEX 01 04:10:26
  TRACK 137 AUDIO
    TITLE "3:cjc143_2726"
    INDEX 01 04:11:32
  TRACK 138 AUDIO
    TITLE "0:"
    INDEX 01 04:15:41
  TRACK 139 AUDIO
    TITLE "3:cjc143_2727"
    INDEX 01 04:16:47
  TRACK 140 AUDIO
    TITLE "0:"
    INDEX 01 04:19:33
  TRACK 141 AUDIO
    TITLE "3:cjc143_2728"
    INDEX 01 04:20:40
  TRACK 142 AUDIO
    TITLE "0:"
    INDEX 01 04:23:54
